<svg xmlns="http://www.w3.org/2000/svg" preserveAspectRatio="none" viewBox="0 0 187 152" xmlns:xlink="http://www.w3.org/1999/xlink">
    <defs>
        <path id="a" d="M192.7 62.5c3 0 5.3 2.4 5.3 5.3v34c0 3-2.4 5.4-5.3 5.4-3 0-5.2-2.4-5.2-5.3V67c0-3 2.3-5.3 5.2-5.3zM176.5 48c3 0 5.3 2.3 5.3 5.2v68.2c0 3-2.4 5.2-5.3 5.2-3 0-5.3-2.3-5.3-5.2V53.2c0-3 2.4-5.3 5.3-5.3zM161 35c3 0 5.4 2.3 5.4 5.2V140c0 3-2.4 5.3-5.3 5.3-2 0-5-2.4-5-5.3V40.2c0-3 3-5.3 6-5.3zm-15.3-13c3 0 5.2 2.3 5.2 5.2v131.5c0 3-3 5.3-6 5.3s-5.5-2.4-5.5-5.3V27.2c0-3 2.3-5.3 5.3-5.3zM130.2 9c3 0 5.3 2.3 5.3 5.2v162.4c0 3-2.3 5.2-5.3 5.2s-5.2-2.3-5.2-5.2V14.2c0-3 2.3-5.3 5.2-5.3zM114 1.5c3 0 5.3 2.4 5.3 5.3V195c0 3-2.4 5.3-5.3 5.3-3 0-5.3-2.4-5.3-5.3V7c0-3 2.4-5.4 5.3-5.4zM98.6 0c3 0 5.3 2.4 5.3 5.3v196.4c0 3-3 5.3-6 5.3s-5.6-2.4-5.6-5.3V5.3C92.4 2.3 95 0 98 0zM83.2 8c3 0 5.3 2.5 5.3 5.4V201c0 2.8-2.4 5.2-5.3 5.2-3 0-5.3-2.4-5.3-5.3V13c0-3 2-5.3 5-5.3zM67.8 27c3 0 5.2 2.3 5.2 5.3v159.2c0 3-2.3 5.2-5.2 5.2-3 0-5.3-2.3-5.3-5.2v-159c0-3 2.3-5.4 5.3-5.4zM51.5 46.3c3 0 5.3 2.3 5.3 5.2v126c0 2.8-2.4 5-5.3 5-3 0-5.2-2.2-5.2-5v-126c0-3 2.3-5.2 5.2-5.2zM36 65c3 0 5.4 2.3 5.4 5.2v94.2c0 3-2.4 5.3-5.3 5.3-2 0-5-2.4-5-5.3V70.2c0-3 3-5.3 6-5.3zM20.8 82.7c3 0 5.3 2.4 5.3 5.3v63.4c0 3-2 5.3-5 5.3s-5-2.4-5-5.3V88c0-2.8 2.7-5.2 5.6-5.2zM5.3 101.5c3 0 5.2 2.3 5.2 5.2v31.7c0 3-2.3 5.3-5.2 5.3-3 0-5.3-2.4-5.3-5.3v-31.7c0-3 2.4-5.2 5.3-5.2z" />
        <filter id="b" width="100.5%" height="100.5%" x="-.3%" y="-.2%" filterUnits="objectBoundingBox">
            <feOffset dx="1" dy="1" in="SourceAlpha" result="shadowOffsetInner1" />
            <feComposite in="shadowOffsetInner1" in2="SourceAlpha" operator="arithmetic" k2="-1" k3="1" result="shadowInnerInner1" />
            <feColorMatrix values="0 0 0 0 0 0 0 0 0 0 0 0 0 0 0 0 0 0 0.175186821 0" in="shadowInnerInner1" />
        </filter>
    </defs>
    <g fill="none" fill-rule="evenodd" transform="rotate(50 126.023 83.066)">
        <use fill="#F5F5F0" xlink:href="#a" />
        <use fill="#000" filter="url(#b)" xlink:href="#a" />
    </g>
</svg>
