<?xml version="1.0" encoding="UTF-8"?>
<svg preserveAspectRatio="none" viewBox="0 0 187 152" version="1.1" xmlns="http://www.w3.org/2000/svg" xmlns:xlink="http://www.w3.org/1999/xlink">
    <defs>
        <path d="M192.72541,62.5058824 C195.638486,62.5058824 198,64.8673968 198,67.7804725 L198,101.878351 C198,104.791427 195.638486,107.152941 192.72541,107.152941 C189.812334,107.152941 187.45082,104.791427 187.45082,101.878351 L187.45082,67.7804725 C187.45082,64.8673968 189.812334,62.5058824 192.72541,62.5058824 Z M176.495902,47.8941176 C179.408977,47.8941176 181.770492,50.2556321 181.770492,53.1687078 L181.770492,121.360704 C181.770492,124.27378 179.408977,126.635294 176.495902,126.635294 C173.582826,126.635294 171.221311,124.27378 171.221311,121.360704 L171.221311,53.1687078 C171.221311,50.2556321 173.582826,47.8941176 176.495902,47.8941176 Z M161.077869,34.9058824 C163.990945,34.9058824 166.352459,37.2673968 166.352459,40.1804725 L166.352459,140.031292 C166.352459,142.944368 163.990945,145.305882 161.077869,145.305882 C158.164793,145.305882 155.803279,142.944368 155.803279,140.031292 L155.803279,40.1804725 C155.803279,37.2673968 158.164793,34.9058824 161.077869,34.9058824 Z M145.659836,21.9176471 C148.572912,21.9176471 150.934426,24.2791615 150.934426,27.1922372 L150.934426,158.70188 C150.934426,161.614956 148.572912,163.976471 145.659836,163.976471 C142.74676,163.976471 140.385246,161.614956 140.385246,158.70188 L140.385246,27.1922372 C140.385246,24.2791615 142.74676,21.9176471 145.659836,21.9176471 Z M130.241803,8.92941176 C133.154879,8.92941176 135.516393,11.2909262 135.516393,14.2040019 L135.516393,176.560704 C135.516393,179.47378 133.154879,181.835294 130.241803,181.835294 C127.328728,181.835294 124.967213,179.47378 124.967213,176.560704 L124.967213,14.2040019 C124.967213,11.2909262 127.328728,8.92941176 130.241803,8.92941176 Z M114.012295,1.62352941 C116.925371,1.62352941 119.286885,3.98504387 119.286885,6.89811958 L119.286885,195.231292 C119.286885,198.144368 116.925371,200.505882 114.012295,200.505882 C111.099219,200.505882 108.737705,198.144368 108.737705,195.231292 L108.737705,6.89811958 C108.737705,3.98504387 111.099219,1.62352941 114.012295,1.62352941 Z M98.5942623,-6.89226454e-13 C101.507338,-6.89761577e-13 103.868852,2.36151445 103.868852,5.27459016 L103.868852,201.72541 C103.868852,204.638486 101.507338,207 98.5942623,207 C95.6811866,207 93.3196721,204.638486 93.3196721,201.72541 L93.3196721,5.27459016 C93.3196721,2.36151445 95.6811866,-6.8869133e-13 98.5942623,-6.89226454e-13 Z M83.1762295,8.11764706 C86.0893052,8.11764706 88.4508197,10.4791615 88.4508197,13.3922372 L88.4508197,200.913645 C88.4508197,203.826721 86.0893052,206.188235 83.1762295,206.188235 C80.2631538,206.188235 77.9016393,203.826721 77.9016393,200.913645 L77.9016393,13.3922372 C77.9016393,10.4791615 80.2631538,8.11764706 83.1762295,8.11764706 Z M67.7581967,26.7882353 C70.6712724,26.7882353 73.0327869,29.1497497 73.0327869,32.0628255 L73.0327869,191.172469 C73.0327869,194.085544 70.6712724,196.447059 67.7581967,196.447059 C64.845121,196.447059 62.4836066,194.085544 62.4836066,191.172469 L62.4836066,32.0628255 C62.4836066,29.1497497 64.845121,26.7882353 67.7581967,26.7882353 Z M51.5286885,46.2705882 C54.4417642,46.2705882 56.8032787,48.6321027 56.8032787,51.5451784 L56.8032787,177.372469 C56.8032787,180.285544 54.4417642,182.647059 51.5286885,182.647059 C48.6156128,182.647059 46.2540984,180.285544 46.2540984,177.372469 L46.2540984,51.5451784 C46.2540984,48.6321027 48.6156128,46.2705882 51.5286885,46.2705882 Z M36.1106557,64.9411765 C39.0237314,64.9411765 41.3852459,67.3026909 41.3852459,70.2157666 L41.3852459,164.384233 C41.3852459,167.297309 39.0237314,169.658824 36.1106557,169.658824 C33.19758,169.658824 30.8360656,167.297309 30.8360656,164.384233 L30.8360656,70.2157666 C30.8360656,67.3026909 33.19758,64.9411765 36.1106557,64.9411765 Z M20.692623,82.8 C23.6056987,82.8 25.9672131,85.1615145 25.9672131,88.0745902 L25.9672131,151.395998 C25.9672131,154.309074 23.6056987,156.670588 20.692623,156.670588 C17.7795472,156.670588 15.4180328,154.309074 15.4180328,151.395998 L15.4180328,88.0745902 C15.4180328,85.1615145 17.7795472,82.8 20.692623,82.8 Z M5.27459016,101.470588 C8.18766587,101.470588 10.5491803,103.832103 10.5491803,106.745178 L10.5491803,138.407763 C10.5491803,141.320838 8.18766587,143.682353 5.27459016,143.682353 C2.36151445,143.682353 2.27730424e-13,141.320838 2.27373675e-13,138.407763 L2.31814568e-13,106.745178 C2.31457819e-13,103.832103 2.36151445,101.470588 5.27459016,101.470588 Z" id="path-1"></path>
        <filter x="-0.3%" y="-0.2%" width="100.5%" height="100.5%" filterUnits="objectBoundingBox" id="filter-2">
            <feOffset dx="1" dy="1" in="SourceAlpha" result="shadowOffsetInner1"></feOffset>
            <feComposite in="shadowOffsetInner1" in2="SourceAlpha" operator="arithmetic" k2="-1" k3="1" result="shadowInnerInner1"></feComposite>
            <feColorMatrix values="0 0 0 0 0   0 0 0 0 0   0 0 0 0 0  0 0 0 0.175186821 0" type="matrix" in="shadowInnerInner1"></feColorMatrix>
        </filter>
    </defs>
    <g id="Page-1" stroke="none" stroke-width="1" fill="none" fill-rule="evenodd">
        <g id="Browser-Window-Copy" transform="translate(-1278.000000, -238.000000)">
            <g id="Group-10" transform="translate(109.000000, -24.000000)">
                <g id="speaker" transform="translate(1262.000000, 337.500000) rotate(-310.000000) translate(-1262.000000, -337.500000) translate(1163.000000, 234.000000)">
                    <g id="Combined-Shape">
                        <use fill="#F5F5F0" fill-rule="evenodd" xlink:href="#path-1"></use>
                        <use fill="black" fill-opacity="1" filter="url(#filter-2)" xlink:href="#path-1"></use>
                    </g>
                </g>
            </g>
        </g>
    </g>
</svg>