<svg xmlns="http://www.w3.org/2000/svg" preserveAspectRatio="none" viewBox="0 0 282 263">
    <defs>
        <radialGradient id="a" cx="51%" cy="48.9%" r="74.8%" fx="51%" fy="48.9%" gradientTransform="matrix(0 1 -.93262 0 .966 -.02)">
            <stop offset="0%" stop-opacity=".7" />
            <stop offset="100%" stop-opacity=".8" />
        </radialGradient>
    </defs>
    <path fill="url(#a)" fill-rule="evenodd" d="M9 4h272c2.8 0 5 2.2 5 5v253c0 2.8-2.2 5-5 5h-7.4c-2 0-4-1.4-4.7-3.5l-7.5-22.4c-.4-1-1.6-2-3-2H31.3c-1.3 0-2.5 1-3 2l-7 22.7c-.7 2-2.7 3.5-4.8 3.5H9c-2.8 0-5-2-5-5V9c0-2.8 2.2-5 5-5z" transform="translate(-4 -4)" />
</svg>
