<svg xmlns="http://www.w3.org/2000/svg" width="409" height="42" viewBox="0 0 409 42">
  <g fill="none" fill-rule="evenodd" transform="translate(0 -3)">
    <path fill="#000" d="M25.205,15.41 C26.8550083,16.3300046 28.1549952,17.5949919 29.105,19.205 C30.0550047,20.815008 30.53,22.5899903 30.53,24.53 C30.53,26.4700097 30.0550047,28.239992 29.105,29.84 C28.1549952,31.440008 26.8500083,32.6999954 25.19,33.62 C23.5299917,34.5400046 21.6900101,35 19.67,35 L11.3,35 L11.3,14.03 L19.73,14.03 C21.73001,14.03 23.5549917,14.4899954 25.205,15.41 Z M24.14,32 C25.4600066,31.2399962 26.5049962,30.2050066 27.275,28.895 C28.0450039,27.5849934 28.43,26.130008 28.43,24.53 C28.43,22.929992 28.0400039,21.4700066 27.26,20.15 C26.4799961,18.8299934 25.4250067,17.7900038 24.095,17.03 C22.7649933,16.2699962 21.300008,15.89 19.7,15.89 L13.37,15.89 L13.37,33.14 L19.79,33.14 C21.3700079,33.14 22.8199934,32.7600038 24.14,32 Z M50.24,35 L47.75,29.42 L36.11,29.42 L33.65,35 L31.43,35 L40.88,14.03 L43.04,14.03 L52.49,35 L50.24,35 Z M36.92,27.56 L46.94,27.56 L41.9,16.22 L36.92,27.56 Z M71.15,14.03 L73.19,14.03 L73.19,35 L71,35 L58.01,17.24 L58.01,35 L55.94,35 L55.94,14.03 L58.13,14.03 L71.15,31.79 L71.15,14.03 Z M92.15,16.37 C91.0499945,15.9099977 89.9100059,15.68 88.73,15.68 C87.1099919,15.68 85.6250067,16.0699961 84.275,16.85 C82.9249932,17.6300039 81.8550039,18.6949932 81.065,20.045 C80.274996,21.3950068 79.88,22.869992 79.88,24.47 C79.88,26.070008 80.274996,27.5399933 81.065,28.88 C81.8550039,30.2200067 82.9249932,31.2849961 84.275,32.075 C85.6250067,32.865004 87.1099919,33.26 88.73,33.26 C89.8900058,33.26 91.0199945,33.0350023 92.12,32.585 C93.2200055,32.1349977 94.1999957,31.510004 95.06,30.71 L96.32,32.06 C95.2799948,33.0200048 94.0900067,33.7799972 92.75,34.34 C91.4099933,34.9000028 90.040007,35.18 88.64,35.18 C86.6599901,35.18 84.8400083,34.7000048 83.18,33.74 C81.5199917,32.7799952 80.2050048,31.4800082 79.235,29.84 C78.2649952,28.1999918 77.78,26.4100097 77.78,24.47 C77.78,22.5299903 78.2699951,20.7500081 79.25,19.13 C80.2300049,17.5099919 81.5549917,16.2250048 83.225,15.275 C84.8950083,14.3249953 86.7199901,13.85 88.7,13.85 C90.1200071,13.85 91.4899934,14.1149973 92.81,14.645 C94.1300066,15.1750026 95.289995,15.9099953 96.29,16.85 L95.06,18.29 C94.2199958,17.4699959 93.2500055,16.8300023 92.15,16.37 Z M100.85,14.03 L114.89,14.03 L114.89,15.89 L102.92,15.89 L102.92,23.39 L113.63,23.39 L113.63,25.25 L102.92,25.25 L102.92,33.14 L115.28,33.14 L115.28,35 L100.85,35 L100.85,14.03 Z M119.63,14 L124.22,14 L131.18,27.53 L138.08,14 L142.67,14 L142.67,35 L138.98,35 L138.98,19.94 L132.44,32.84 L129.86,32.84 L123.29,19.94 L123.29,35 L119.63,35 L119.63,14 Z M152.87,30.26 C153.810005,31.2000047 155.069992,31.67 156.65,31.67 C158.230008,31.67 159.474995,31.2000047 160.385,30.26 C161.295005,29.3199953 161.75,28.0200083 161.75,26.36 L161.75,14 L165.77,14 L165.77,26.36 C165.77,28.1800091 165.400004,29.7649932 164.66,31.115 C163.919996,32.4650068 162.865007,33.4999964 161.495,34.22 C160.124993,34.9400036 158.510009,35.3 156.65,35.3 C154.769991,35.3 153.135007,34.9400036 151.745,34.22 C150.354993,33.4999964 149.290004,32.4650068 148.55,31.115 C147.809996,29.7649932 147.44,28.1800091 147.44,26.36 L147.44,14 L151.46,14 L151.46,26.36 C151.46,28.0200083 151.929995,29.3199953 152.87,30.26 Z M180.395,17.87 C179.264994,17.5099982 178.270004,17.33 177.41,17.33 C176.449995,17.33 175.690003,17.5099982 175.13,17.87 C174.569997,18.2300018 174.29,18.7299968 174.29,19.37 C174.29,19.9500029 174.484998,20.4349981 174.875,20.825 C175.265002,21.215002 175.754997,21.5349987 176.345,21.785 C176.935003,22.0350013 177.739995,22.3099985 178.76,22.61 C180.180007,23.0300021 181.344995,23.4499979 182.255,23.87 C183.165005,24.2900021 183.939997,24.9099959 184.58,25.73 C185.220003,26.5500041 185.54,27.6299933 185.54,28.97 C185.54,30.2500064 185.195003,31.3649952 184.505,32.315 C183.814997,33.2650048 182.865006,33.9899975 181.655,34.49 C180.444994,34.9900025 179.060008,35.24 177.5,35.24 C175.859992,35.24 174.260008,34.935003 172.7,34.325 C171.139992,33.7149969 169.780006,32.9000051 168.62,31.88 L170.3,28.46 C171.360005,29.4400049 172.549993,30.2099972 173.87,30.77 C175.190007,31.3300028 176.419994,31.61 177.56,31.61 C178.680006,31.61 179.559997,31.3950021 180.2,30.965 C180.840003,30.5349978 181.16,29.9500037 181.16,29.21 C181.16,28.609997 180.965002,28.1150019 180.575,27.725 C180.184998,27.334998 179.690003,27.0200012 179.09,26.78 C178.489997,26.5399988 177.670005,26.2700015 176.63,25.97 C175.209993,25.5499979 174.050005,25.140002 173.15,24.74 C172.249996,24.339998 171.480003,23.7350041 170.84,22.925 C170.199997,22.114996 169.88,21.0500066 169.88,19.73 C169.88,18.5099939 170.204997,17.4450046 170.855,16.535 C171.505003,15.6249955 172.424994,14.9200025 173.615,14.42 C174.805006,13.9199975 176.179992,13.67 177.74,13.67 C179.100007,13.67 180.444993,13.869998 181.775,14.27 C183.105007,14.670002 184.289995,15.2099966 185.33,15.89 L183.71,19.4 C182.629995,18.7399967 181.525006,18.2300018 180.395,17.87 Z M189.35,14 L193.37,14 L193.37,35 L189.35,35 L189.35,14 Z M211.115,18.05 C210.104995,17.5699976 209.080005,17.33 208.04,17.33 C206.739993,17.33 205.550005,17.6399969 204.47,18.26 C203.389995,18.8800031 202.540003,19.7349946 201.92,20.825 C201.299997,21.9150055 200.99,23.1099935 200.99,24.41 C200.99,25.7100065 201.299997,26.9049946 201.92,27.995 C202.540003,29.0850055 203.389995,29.9449968 204.47,30.575 C205.550005,31.2050031 206.739993,31.52 208.04,31.52 C209.040005,31.52 210.044995,31.3000022 211.055,30.86 C212.065005,30.4199978 212.959996,29.8100039 213.74,29.03 L216.11,31.67 C215.009994,32.7900056 213.730007,33.6749967 212.27,34.325 C210.809993,34.9750033 209.330007,35.3 207.83,35.3 C205.80999,35.3 203.960008,34.8200048 202.28,33.86 C200.599992,32.8999952 199.280005,31.5950082 198.32,29.945 C197.359995,28.2949918 196.88,26.47001 196.88,24.47 C196.88,22.46999 197.369995,20.6500082 198.35,19.01 C199.330005,17.3699918 200.664992,16.0800047 202.355,15.14 C204.045008,14.1999953 205.91999,13.73 207.98,13.73 C209.480007,13.73 210.949993,14.029997 212.39,14.63 C213.830007,15.230003 215.059995,16.0599947 216.08,17.12 L213.74,20.06 C212.999996,19.1999957 212.125005,18.5300024 211.115,18.05 Z" opacity=".8"/>
    <path fill="#F48A31" fill-opacity=".851" d="M254.04,38 L253.04,18.68 L243.2,38 L236.4,38 L235.36,10.92 L241.6,10.92 L242.04,30.76 L251.84,10.92 L257.92,10.92 L258.76,30.72 L268,10.92 L273.96,10.92 L260.88,38 L254.04,38 Z M282.56,38 L276.48,38 L281.08,16.24 L274.52,16.24 L275.64,10.92 L294.88,10.92 L293.76,16.24 L287.16,16.24 L282.56,38 Z M301,27.24 L298.72,38 L292.44,38 L296.64,18.24 L302.92,18.24 L301.96,22.72 L312.16,22.72 L311.2,27.24 L301,27.24 Z M297.04,16.24 L298.16,10.92 L318.2,10.92 L317.08,16.24 L297.04,16.24 Z M317.2,25.92 L317.92,22.56 L330.8,22.56 L330.08,25.92 L317.2,25.92 Z M334.96,38 C333.599993,38 332.620003,37.7600024 332.02,37.28 C331.419997,36.7999976 331.12,36.0533384 331.12,35.04 C331.12,34.6133312 331.186666,34.06667 331.32,33.4 L332.2,29.2 L337.76,29.2 L337.28,31.56 C337.253333,31.693334 337.233333,31.8066662 337.22,31.9 C337.206667,31.9933338 337.2,32.0799996 337.2,32.16 C337.2,32.7200028 337.599996,33 338.4,33 L346.04,33 C346.573336,33 346.966665,32.8933344 347.22,32.68 C347.473335,32.4666656 347.666666,32.093336 347.8,31.56 L348.68,27.32 C348.706667,27.2133328 348.72,27.0666676 348.72,26.88 C348.72,26.3999976 348.306671,26.16 347.48,26.16 L341.56,26.16 L342.44,22.16 L348.36,22.16 C348.893336,22.16 349.266666,22.0666676 349.48,21.88 C349.693334,21.6933324 349.853333,21.3733356 349.96,20.92 L350.76,17.16 C350.786667,17.026666 350.806667,16.9133338 350.82,16.82 C350.833333,16.7266662 350.84,16.6266672 350.84,16.52 C350.84,16.0133308 350.453337,15.76 349.68,15.76 L342.12,15.76 C341.586664,15.76 341.193335,15.859999 340.94,16.06 C340.686665,16.260001 340.506667,16.626664 340.4,17.16 L339.96,19.28 L334.48,19.28 L335.28,15.52 C335.600002,13.9733256 336.206662,12.8200038 337.1,12.06 C337.993338,11.2999962 339.293325,10.92 341,10.92 L352.8,10.92 C354.21334,10.92 355.226664,11.1733308 355.84,11.68 C356.453336,12.1866692 356.76,12.9466616 356.76,13.96 C356.76,14.493336 356.706667,15.0133308 356.6,15.52 L355.52,20.6 C355.279999,21.7200056 354.833337,22.5399974 354.18,23.06 C353.526663,23.5800026 352.720005,23.8933328 351.76,24 C352.533337,24.0800004 353.166664,24.2799984 353.66,24.6 C354.153336,24.9200016 354.4,25.4399964 354.4,26.16 C354.4,26.293334 354.393333,26.426666 354.38,26.56 C354.366667,26.693334 354.346667,26.826666 354.32,26.96 L352.96,33.4 C352.639998,34.9466744 352.066671,36.0999962 351.24,36.86 C350.413329,37.6200038 349.133342,38 347.4,38 L334.96,38 Z M360.72,38 C359.359993,38 358.380003,37.7600024 357.78,37.28 C357.179997,36.7999976 356.88,36.0666716 356.88,35.08 C356.88,34.5733308 356.959999,33.9733368 357.12,33.28 L360.84,15.64 C361.186668,14.039992 361.773329,12.8533372 362.6,12.08 C363.426671,11.3066628 364.706658,10.92 366.44,10.92 L379.16,10.92 C380.520007,10.92 381.49333,11.1599976 382.08,11.64 C382.66667,12.1200024 382.96,12.8666616 382.96,13.88 C382.96,14.146668 382.94,14.4199986 382.9,14.7 C382.86,14.9800014 382.813334,15.2933316 382.76,15.64 L379.04,33.28 C378.693332,34.880008 378.106671,36.0666628 377.28,36.84 C376.453329,37.6133372 375.173342,38 373.44,38 L360.72,38 Z M376.6,17.76 C376.626667,17.626666 376.646667,17.5066672 376.66,17.4 C376.673333,17.2933328 376.68,17.1866672 376.68,17.08 C376.68,16.7333316 376.580001,16.493334 376.38,16.36 C376.179999,16.226666 375.826669,16.16 375.32,16.16 L367.84,16.16 C367.306664,16.16 366.920001,16.2733322 366.68,16.5 C366.439999,16.7266678 366.253334,17.1333304 366.12,17.72 L363.24,31.24 C363.186666,31.506668 363.16,31.6933328 363.16,31.8 C363.16,32.333336 363.546663,32.6 364.32,32.6 L371.8,32.6 C372.440003,32.6 372.893332,32.4933344 373.16,32.28 C373.426668,32.0666656 373.613333,31.7200024 373.72,31.24 L376.6,17.76 Z M386.72,38 C385.359993,38 384.380003,37.7600024 383.78,37.28 C383.179997,36.7999976 382.88,36.0666716 382.88,35.08 C382.88,34.5733308 382.959999,33.9733368 383.12,33.28 L386.84,15.64 C387.186668,14.039992 387.773329,12.8533372 388.6,12.08 C389.426671,11.3066628 390.706658,10.92 392.44,10.92 L405.16,10.92 C406.520007,10.92 407.49333,11.1599976 408.08,11.64 C408.66667,12.1200024 408.96,12.8666616 408.96,13.88 C408.96,14.146668 408.94,14.4199986 408.9,14.7 C408.86,14.9800014 408.813334,15.2933316 408.76,15.64 L405.04,33.28 C404.693332,34.880008 404.106671,36.0666628 403.28,36.84 C402.453329,37.6133372 401.173342,38 399.44,38 L386.72,38 Z M402.6,17.76 C402.626667,17.626666 402.646667,17.5066672 402.66,17.4 C402.673333,17.2933328 402.68,17.1866672 402.68,17.08 C402.68,16.7333316 402.580001,16.493334 402.38,16.36 C402.179999,16.226666 401.826669,16.16 401.32,16.16 L393.84,16.16 C393.306664,16.16 392.920001,16.2733322 392.68,16.5 C392.439999,16.7266678 392.253334,17.1333304 392.12,17.72 L389.24,31.24 C389.186666,31.506668 389.16,31.6933328 389.16,31.8 C389.16,32.333336 389.546663,32.6 390.32,32.6 L397.8,32.6 C398.440003,32.6 398.893332,32.4933344 399.16,32.28 C399.426668,32.0666656 399.613333,31.7200024 399.72,31.24 L402.6,17.76 Z"/>
    <rect width="222" height="40" x="1" y="4" stroke="#313130" stroke-width="2"/>
  </g>
</svg>
