<svg xmlns="http://www.w3.org/2000/svg" preserveAspectRatio="none" viewBox="0 0 282 263">
  <defs>
    <radialGradient id="fill" cx="50.968%" cy="48.895%" r="74.77%" fx="50.968%" fy="48.895%" gradientTransform="matrix(0 1 -.93262 0 .966 -.02)">
      <stop offset="0%" stop-opacity=".68"/>
      <stop offset="100%" stop-opacity=".78"/>
    </radialGradient>
  </defs>
  <path fill="url(#fill)" fill-rule="evenodd" d="M9,4 L281,4 C283.761424,4 286,6.23857625 286,9 L286,262 C286,264.761424 283.761424,267 281,267 L273.6448,267 L273.6448,267 C271.472843,267 269.549296,265.597811 268.884658,263.530046 L261.669205,241.081972 L261.669205,241.081972 C261.270422,239.841313 260.116294,239 258.81312,239 L31.1868803,239 L31.1868803,239 C29.8837059,239 28.7295779,239.841313 28.3307946,241.081972 L21.1153424,263.530046 L21.1153424,263.530046 C20.4507035,265.597811 18.5271569,267 16.3551996,267 L9,267 C6.23857625,267 4,264.761424 4,262 L4,9 C4,6.23857625 6.23857625,4 9,4 Z" transform="translate(-4 -4)"/>
</svg>
